<svg width="596" height="100" viewBox="0 0 596 100" fill="none" xmlns="http://www.w3.org/2000/svg">
<path d="M0.5805 4.848L14.4045 4.416C18.2765 4.416 20.8205 4.896 22.0365 5.856C23.2205 6.752 23.8125 8.112 23.8125 9.936C23.8125 11.76 23.1885 13.408 21.9405 14.88C20.6925 16.32 19.1725 17.408 17.3805 18.144V18.336C19.6845 18.336 21.5565 18.864 22.9965 19.92C24.4365 20.976 25.1565 22.544 25.1565 24.624C25.1565 27.184 23.9565 29.664 21.5565 32.064C19.1885 34.432 16.6125 35.984 13.8285 36.72C11.8125 36.72 9.4605 36.112 6.7725 34.896C6.2285 35.728 5.8605 36.448 5.6685 37.056L4.6605 36.816C5.4285 33.328 5.8125 28.208 5.8125 21.456C5.8125 14.704 5.6365 9.824 5.2845 6.816C3.7485 6.304 2.1805 6.048 0.5805 6.048V4.848ZM12.4365 17.664C14.8045 17.664 16.5165 17.328 17.5725 16.656C18.7245 15.376 19.3005 13.68 19.3005 11.568C19.3005 7.984 17.3965 6.192 13.5885 6.192C12.3085 6.192 11.0925 6.4 9.9405 6.816C9.6525 9.824 9.5085 14.064 9.5085 19.536C9.5085 24.976 9.5885 29.104 9.7485 31.92C11.4125 32.816 13.1885 33.264 15.0765 33.264C16.9965 33.264 18.5165 32.88 19.6365 32.112C20.3725 30.544 20.7405 28.784 20.7405 26.832C20.7405 21.904 17.7005 19.44 11.6205 19.44L11.8605 17.664H12.4365ZM40.3808 36.384C38.7488 36.128 36.9728 36 35.0528 36C33.1328 36 31.2608 36.096 29.4368 36.288L29.2928 35.376C30.2528 34.96 31.1968 34.64 32.1248 34.416C32.4128 32.24 32.5568 29.728 32.5568 26.88V22.848C32.5568 19.904 32.4448 17.296 32.2208 15.024C31.4528 14.768 30.5888 14.64 29.6288 14.64V13.632C31.6768 13.536 33.8368 13.232 36.1088 12.72L36.4448 12.912C36.0928 15.12 35.9168 17.616 35.9168 20.4L36.1088 20.448C36.5568 19.168 37.3728 17.696 38.5568 16.032C39.7728 14.336 40.8928 13.232 41.9168 12.72C43.3568 12.72 44.7648 12.976 46.1408 13.488V14.16C44.9248 15.696 44.2368 17.696 44.0768 20.16H43.0208C43.0208 18.912 42.9888 17.936 42.9248 17.232C42.5088 16.912 41.9648 16.752 41.2928 16.752C40.3328 16.752 39.3088 17.52 38.2208 19.056C37.1648 20.56 36.3968 22 35.9168 23.376C35.9168 28.016 36.0928 31.744 36.4448 34.56C38.0448 34.784 39.3888 35.088 40.4768 35.472L40.3808 36.384ZM54.87 22.848V26.88C54.87 30.336 54.982 32.896 55.206 34.56C56.102 34.752 57.11 35.056 58.23 35.472L58.134 36.384C56.342 36.128 54.646 36 53.046 36C51.446 36 49.83 36.096 48.198 36.288L48.054 35.376C49.014 34.96 49.958 34.64 50.886 34.416C51.174 32.24 51.318 29.728 51.318 26.88V22.848C51.318 20.256 51.19 17.664 50.934 15.072C50.102 14.816 49.238 14.688 48.342 14.688V13.68C50.806 13.52 53.078 13.2 55.158 12.72L55.494 12.912C55.078 15.376 54.87 18.688 54.87 22.848ZM55.734 6.24C55.51 6.656 55.11 7.184 54.534 7.824C53.99 8.464 53.526 8.912 53.142 9.168C52.758 8.912 52.278 8.464 51.702 7.824C51.158 7.184 50.774 6.656 50.55 6.24C50.742 5.856 51.11 5.424 51.654 4.944C52.198 4.432 52.694 4.064 53.142 3.84C53.558 4.096 54.038 4.48 54.582 4.992C55.126 5.472 55.51 5.888 55.734 6.24ZM62.0753 27.12C62.0753 23.856 62.9393 20.896 64.6673 18.24C66.3953 15.552 68.7473 13.712 71.7233 12.72C73.8673 12.72 76.1073 13.056 78.4433 13.728C79.8513 13.44 81.0833 13.136 82.1393 12.816L82.3793 13.68C81.7713 14.16 81.0193 14.624 80.1233 15.072C79.7073 18.944 79.4993 23.072 79.4993 27.456C79.4993 31.808 79.6113 35.2 79.8353 37.632C79.1313 39.392 77.8033 41.12 75.8513 42.816C73.8993 44.544 71.9633 45.712 70.0433 46.32C67.0673 46.32 64.2193 45.824 61.4993 44.832V43.92C62.1073 41.776 63.8993 39.104 66.8753 35.904V35.712C65.4033 35.296 64.2353 34.224 63.3713 32.496C62.5073 30.736 62.0753 28.944 62.0753 27.12ZM65.9153 25.008C65.9153 26.512 66.1873 28.064 66.7313 29.664C67.3073 31.264 68.1073 32.064 69.1313 32.064C70.1873 32.064 71.4833 31.232 73.0193 29.568C74.5873 27.872 75.6273 26.4 76.1393 25.152C76.1393 20.96 76.0273 18.192 75.8033 16.848C74.1073 16.08 72.4913 15.696 70.9553 15.696C69.4193 15.696 68.2193 16.08 67.3553 16.848C66.3953 19.184 65.9153 21.904 65.9153 25.008ZM71.1953 43.344C72.6033 43.344 73.7073 42.96 74.5073 42.192C75.2433 40.272 75.6913 38.416 75.8513 36.624C76.0433 34.832 76.1393 31.904 76.1393 27.84L75.9473 27.792C75.0833 29.616 73.5153 31.52 71.2433 33.504C70.3473 34.272 69.4833 35.072 68.6513 35.904C66.6353 37.92 65.5153 39.952 65.2913 42C67.0513 42.896 69.0193 43.344 71.1953 43.344ZM102.152 22.032C102.152 18.448 101.416 16.656 99.9439 16.656C98.6959 16.656 97.2239 17.44 95.5279 19.008C93.8319 20.576 92.6959 22.032 92.1199 23.376C92.1199 28.016 92.2959 31.744 92.6479 34.56C93.5119 34.752 94.5199 35.056 95.6719 35.472L95.5759 36.384C93.7839 36.128 92.0879 36 90.4879 36C88.8879 36 87.2719 36.096 85.6399 36.288L85.4959 35.376C86.4559 34.96 87.3999 34.64 88.3279 34.416C88.6159 32.24 88.7599 29.728 88.7599 26.88V17.952C88.7599 9.536 88.3759 3.808 87.6079 0.767999L88.6159 0.48C88.9039 1.504 89.2719 2.352 89.7199 3.024C91.4799 2.736 93.1919 2.352 94.8559 1.872L95.0959 2.736C94.4879 3.216 93.7359 3.68 92.8399 4.128C92.3599 6.752 92.1199 12.176 92.1199 20.4L92.3119 20.448C93.3999 18.944 94.8079 17.408 96.5359 15.84C98.2959 14.24 99.8799 13.2 101.288 12.72C103.24 12.72 104.504 13.6 105.08 15.36C105.464 16.608 105.656 18.144 105.656 19.968C105.656 20.256 105.656 20.576 105.656 20.928L105.416 34.416C106.184 34.672 107.048 34.8 108.008 34.8V35.808C105.96 35.904 103.8 36.208 101.528 36.72L101.192 36.528C101.704 33.424 102.008 28.944 102.104 23.088C102.136 22.768 102.152 22.416 102.152 22.032ZM117.848 26.64C117.848 31.056 118.328 33.264 119.288 33.264C121.048 33.264 122.872 32.416 124.76 30.72L125.24 31.2C123.384 33.792 121.128 35.632 118.472 36.72C116.648 36.72 115.48 35.888 114.968 34.224C114.52 32.816 114.296 30.384 114.296 26.928C114.296 26.32 114.296 25.664 114.296 24.96L114.488 15.408H111.896L111.8 15.312C111.8 14.8 111.848 14.448 111.944 14.256C114.632 12.496 116.392 10.672 117.224 8.784C117.608 8.688 118.056 8.64 118.568 8.64L118.76 8.736C118.44 10.656 118.248 12.208 118.184 13.392L124.904 13.152L125.096 13.344C124.872 13.92 124.664 14.672 124.472 15.6C122.84 15.504 120.696 15.456 118.04 15.456L117.848 24.96C117.848 25.536 117.848 26.096 117.848 26.64ZM137.612 33.264C139.628 33.264 141.596 32.416 143.516 30.72L144.044 31.2C142.22 33.696 139.884 35.536 137.036 36.72C134.22 36.72 132.108 35.84 130.7 34.08C129.292 32.32 128.588 29.872 128.588 26.736C128.588 23.6 129.468 20.688 131.228 18C132.988 15.28 135.34 13.52 138.284 12.72C140.428 12.72 141.932 13.152 142.796 14.016C143.66 14.848 144.092 16.336 144.092 18.48C144.092 19.696 143.932 20.736 143.612 21.6C144.284 21.856 145.068 21.984 145.964 21.984L145.916 22.992C145.724 22.992 145.516 22.992 145.292 22.992C141.708 22.992 137.42 23.52 132.428 24.576C132.428 28.832 133.26 31.488 134.924 32.544C135.628 33.024 136.524 33.264 137.612 33.264ZM140.252 21.36C140.252 19.248 140.044 17.776 139.628 16.944C139.244 16.112 138.412 15.696 137.132 15.696C135.852 15.696 134.748 16.08 133.82 16.848C132.956 18.64 132.492 20.8 132.428 23.328C135.052 22.464 137.66 21.808 140.252 21.36ZM165.105 22.032C165.105 18.448 164.369 16.656 162.897 16.656C161.649 16.656 160.177 17.44 158.481 19.008C156.785 20.576 155.649 22.032 155.073 23.376C155.073 28.016 155.249 31.744 155.601 34.56C156.465 34.752 157.473 35.056 158.625 35.472L158.529 36.384C156.737 36.128 155.041 36 153.441 36C151.841 36 150.225 36.096 148.593 36.288L148.449 35.376C149.409 34.96 150.353 34.64 151.281 34.416C151.569 32.24 151.713 29.728 151.713 26.88V22.848C151.713 19.904 151.601 17.296 151.377 15.024C150.609 14.768 149.745 14.64 148.785 14.64V13.632C150.833 13.536 152.993 13.232 155.265 12.72L155.601 12.912C155.249 15.12 155.073 17.616 155.073 20.4L155.265 20.448C156.353 18.944 157.761 17.408 159.489 15.84C161.249 14.24 162.833 13.2 164.241 12.72C166.193 12.72 167.457 13.6 168.033 15.36C168.417 16.608 168.609 18.144 168.609 19.968C168.609 20.256 168.609 20.576 168.609 20.928L168.369 34.416C169.297 34.64 170.241 34.96 171.201 35.376L171.057 36.288C169.521 36.096 168.209 36 167.121 36C166.065 36 165.057 36.032 164.097 36.096V35.424C164.609 32.928 164.929 28.816 165.057 23.088C165.089 22.768 165.105 22.416 165.105 22.032ZM200.796 6.768C200.796 6.064 200.476 5.552 199.836 5.232L200.028 4.56C201.628 4.688 203.308 4.752 205.068 4.752C206.86 4.752 208.588 4.624 210.252 4.368L210.492 5.568C208.956 6.048 207.404 6.384 205.836 6.576L196.428 21.696C196.428 27.04 196.636 31.248 197.052 34.32C198.748 34.48 200.508 34.784 202.332 35.232L202.188 36.384C199.82 36.128 197.244 36 194.46 36C191.708 36 189.484 36.128 187.788 36.384L187.596 35.184C189.036 34.736 190.572 34.4 192.204 34.176C192.556 31.552 192.732 28.24 192.732 24.24V22.992C189.532 16.208 187.5 11.952 186.636 10.224C185.772 8.464 185.052 7.248 184.476 6.576C182.684 6.352 181.148 6.016 179.868 5.568L180.06 4.368C181.756 4.624 184.044 4.752 186.924 4.752C189.836 4.752 192.476 4.624 194.844 4.368L194.988 5.52C193.164 5.968 191.404 6.272 189.708 6.432C191.212 10.912 193.132 15.376 195.468 19.824C199.02 12.88 200.796 8.528 200.796 6.768ZM217.165 36.72C214.381 36.72 212.093 35.792 210.301 33.936C208.509 32.048 207.613 29.584 207.613 26.544C207.613 23.504 208.525 20.64 210.349 17.952C212.205 15.232 214.637 13.488 217.645 12.72C220.621 12.72 222.877 13.584 224.413 15.312C225.949 17.04 226.717 19.424 226.717 22.464C226.717 25.504 225.821 28.368 224.029 31.056C222.237 33.744 219.949 35.632 217.165 36.72ZM216.349 15.696C215.005 15.696 213.901 16.08 213.037 16.848C211.981 18.864 211.453 21.184 211.453 23.808C211.453 26.432 212.045 28.752 213.229 30.768C214.413 32.752 215.997 33.744 217.981 33.744C219.325 33.744 220.445 33.344 221.341 32.544C222.365 30.592 222.877 28.224 222.877 25.44C222.877 22.624 222.333 20.304 221.245 18.48C220.189 16.624 218.557 15.696 216.349 15.696ZM236.427 27.408C236.427 30.992 237.163 32.784 238.635 32.784C239.883 32.784 241.355 32 243.051 30.432C244.747 28.864 245.883 27.408 246.459 26.064C246.459 21.424 246.283 17.696 245.931 14.88C245.067 14.688 244.059 14.384 242.907 13.968L243.003 13.056C244.795 13.312 246.491 13.44 248.091 13.44C249.691 13.44 251.307 13.344 252.939 13.152L253.083 14.064C252.123 14.48 251.179 14.8 250.251 15.024C249.963 17.2 249.819 19.712 249.819 22.56V26.592C249.819 29.536 249.931 32.144 250.155 34.416C250.923 34.672 251.787 34.8 252.747 34.8V35.808C250.699 35.904 248.539 36.208 246.267 36.72L245.931 36.624C246.283 34.416 246.459 31.888 246.459 29.04L246.267 28.992C245.179 30.496 243.755 32.048 241.995 33.648C240.267 35.216 238.699 36.24 237.291 36.72C235.339 36.72 234.075 35.84 233.499 34.08C233.115 32.832 232.923 31.296 232.923 29.472C232.923 29.184 232.923 28.864 232.923 28.512L233.163 15.024C232.395 14.768 231.531 14.64 230.571 14.64V13.632C232.619 13.536 234.779 13.232 237.051 12.72L237.387 12.912C236.875 16.016 236.571 20.496 236.475 26.352C236.443 26.672 236.427 27.024 236.427 27.408ZM267.818 36.384C266.186 36.128 264.41 36 262.49 36C260.57 36 258.698 36.096 256.874 36.288L256.73 35.376C257.69 34.96 258.634 34.64 259.562 34.416C259.85 32.24 259.994 29.728 259.994 26.88V22.848C259.994 19.904 259.882 17.296 259.658 15.024C258.89 14.768 258.026 14.64 257.066 14.64V13.632C259.114 13.536 261.274 13.232 263.546 12.72L263.882 12.912C263.53 15.12 263.354 17.616 263.354 20.4L263.546 20.448C263.994 19.168 264.81 17.696 265.994 16.032C267.21 14.336 268.33 13.232 269.354 12.72C270.794 12.72 272.202 12.976 273.578 13.488V14.16C272.362 15.696 271.674 17.696 271.514 20.16H270.458C270.458 18.912 270.426 17.936 270.362 17.232C269.946 16.912 269.402 16.752 268.73 16.752C267.77 16.752 266.746 17.52 265.658 19.056C264.602 20.56 263.834 22 263.354 23.376C263.354 28.016 263.53 31.744 263.882 34.56C265.482 34.784 266.826 35.088 267.914 35.472L267.818 36.384ZM304.421 36.528C301.221 36.176 297.557 36 293.429 36C289.333 36 285.861 36.16 283.013 36.48L282.821 35.28C284.069 34.864 285.605 34.496 287.429 34.176C287.781 31.552 287.957 27.424 287.957 21.792V18.96C287.957 13.36 287.781 9.232 287.429 6.576C285.797 6.352 284.261 6.016 282.821 5.568L283.013 4.368C284.709 4.624 286.933 4.752 289.685 4.752C292.469 4.752 295.045 4.624 297.413 4.368L297.557 5.52C295.637 5.968 293.877 6.272 292.277 6.432C291.861 9.248 291.653 13.952 291.653 20.544C291.653 27.136 291.813 31.616 292.133 33.984C293.189 34.144 294.613 34.224 296.405 34.224C298.197 34.224 299.733 33.936 301.013 33.36C301.397 32.176 301.701 30.384 301.925 27.984H303.125C303.253 31.376 303.781 33.904 304.709 35.568L304.421 36.528ZM315.415 36.72C312.631 36.72 310.343 35.792 308.551 33.936C306.759 32.048 305.863 29.584 305.863 26.544C305.863 23.504 306.775 20.64 308.599 17.952C310.455 15.232 312.887 13.488 315.895 12.72C318.871 12.72 321.127 13.584 322.663 15.312C324.199 17.04 324.967 19.424 324.967 22.464C324.967 25.504 324.071 28.368 322.279 31.056C320.487 33.744 318.199 35.632 315.415 36.72ZM314.599 15.696C313.255 15.696 312.151 16.08 311.287 16.848C310.231 18.864 309.703 21.184 309.703 23.808C309.703 26.432 310.295 28.752 311.479 30.768C312.663 32.752 314.247 33.744 316.231 33.744C317.575 33.744 318.695 33.344 319.591 32.544C320.615 30.592 321.127 28.224 321.127 25.44C321.127 22.624 320.583 20.304 319.495 18.48C318.439 16.624 316.807 15.696 314.599 15.696ZM348.405 17.04C348.405 20.048 347.557 23.296 345.861 26.784C344.165 30.24 342.133 33.184 339.765 35.616C338.901 36.032 337.957 36.4 336.933 36.72C335.525 36.4 334.245 33.632 333.093 28.416C332.613 26.144 332.149 23.632 331.701 20.88C331.253 18.096 330.885 16.16 330.597 15.072C329.829 14.816 328.965 14.688 328.005 14.688V13.68C330.149 13.584 332.421 13.264 334.821 12.72L335.157 12.912C334.901 13.808 334.773 14.816 334.773 15.936C334.773 17.024 334.997 18.976 335.445 21.792C335.925 24.576 336.437 27.04 336.981 29.184C337.557 31.296 337.989 32.592 338.277 33.072C338.597 33.552 338.933 33.792 339.285 33.792C341.109 31.552 342.437 29.328 343.269 27.12C344.133 24.88 344.565 22.368 344.565 19.584C344.565 17.984 344.229 16.512 343.557 15.168C342.629 14.88 341.733 14.736 340.869 14.736L340.917 13.728C344.181 13.6 347.253 13.168 350.133 12.432L350.325 13.296C349.909 13.616 349.141 14.064 348.021 14.64C348.277 15.472 348.405 16.272 348.405 17.04ZM361.533 33.264C363.549 33.264 365.517 32.416 367.437 30.72L367.965 31.2C366.141 33.696 363.805 35.536 360.957 36.72C358.141 36.72 356.029 35.84 354.621 34.08C353.213 32.32 352.509 29.872 352.509 26.736C352.509 23.6 353.389 20.688 355.149 18C356.909 15.28 359.261 13.52 362.205 12.72C364.349 12.72 365.853 13.152 366.717 14.016C367.581 14.848 368.013 16.336 368.013 18.48C368.013 19.696 367.853 20.736 367.533 21.6C368.205 21.856 368.989 21.984 369.885 21.984L369.837 22.992C369.645 22.992 369.437 22.992 369.213 22.992C365.629 22.992 361.341 23.52 356.349 24.576C356.349 28.832 357.181 31.488 358.845 32.544C359.549 33.024 360.445 33.264 361.533 33.264ZM364.173 21.36C364.173 19.248 363.965 17.776 363.549 16.944C363.165 16.112 362.333 15.696 361.053 15.696C359.773 15.696 358.669 16.08 357.741 16.848C356.877 18.64 356.413 20.8 356.349 23.328C358.973 22.464 361.581 21.808 364.173 21.36ZM372.947 27.552C372.947 24.224 373.843 21.184 375.635 18.432C377.427 15.648 379.827 13.744 382.835 12.72C384.563 12.72 386.131 12.88 387.539 13.2C387.539 9.04 387.427 6.032 387.203 4.176C386.435 3.92 385.571 3.792 384.611 3.792V2.784C386.659 2.688 388.819 2.384 391.091 1.872L391.427 2.112C390.883 5.248 390.611 10.528 390.611 17.952V26.736C390.611 30 390.723 32.56 390.947 34.416C391.715 34.672 392.579 34.8 393.539 34.8V35.808C391.491 35.904 389.331 36.208 387.059 36.72L386.723 36.528C387.075 34.32 387.251 31.824 387.251 29.04L387.059 28.992C385.939 30.592 384.611 32.144 383.075 33.648C381.539 35.152 380.083 36.176 378.707 36.72C376.947 36.72 375.539 35.744 374.483 33.792C373.459 31.84 372.947 29.76 372.947 27.552ZM376.787 25.392C376.787 26.992 377.059 28.624 377.603 30.288C378.179 31.952 378.995 32.784 380.051 32.784C381.171 32.784 382.531 31.984 384.131 30.384C385.731 28.784 386.771 27.344 387.251 26.064C387.251 21.296 387.139 18.224 386.915 16.848C385.219 16.08 383.571 15.696 381.971 15.696C380.403 15.696 379.203 16.08 378.371 16.848C377.315 19.28 376.787 22.128 376.787 25.392ZM418.276 36.72C414.532 36.72 411.524 35.488 409.252 33.024C406.98 30.528 405.844 27.168 405.844 22.944C405.844 18.72 407.028 14.784 409.396 11.136C411.796 7.456 414.948 5.088 418.852 4.032C422.756 4.032 425.7 5.2 427.684 7.536C429.7 9.872 430.708 13.216 430.708 17.568C430.708 21.888 429.604 25.792 427.396 29.28C425.22 32.736 422.18 35.216 418.276 36.72ZM417.076 7.488C415.284 7.488 413.78 8.032 412.564 9.12C410.932 12 410.116 15.536 410.116 19.728C410.116 24.72 411.46 28.528 414.148 31.152C415.588 32.56 417.268 33.264 419.188 33.264C421.14 33.264 422.756 32.704 424.036 31.584C425.636 28.64 426.436 25.152 426.436 21.12C426.436 17.376 425.796 14.24 424.516 11.712C423.108 8.896 420.628 7.488 417.076 7.488ZM451.183 22.032C451.183 18.448 450.447 16.656 448.975 16.656C447.727 16.656 446.255 17.44 444.559 19.008C442.863 20.576 441.727 22.032 441.151 23.376C441.151 28.016 441.327 31.744 441.679 34.56C442.543 34.752 443.551 35.056 444.703 35.472L444.607 36.384C442.815 36.128 441.119 36 439.519 36C437.919 36 436.303 36.096 434.671 36.288L434.527 35.376C435.487 34.96 436.431 34.64 437.359 34.416C437.647 32.24 437.791 29.728 437.791 26.88V22.848C437.791 19.904 437.679 17.296 437.455 15.024C436.687 14.768 435.823 14.64 434.863 14.64V13.632C436.911 13.536 439.071 13.232 441.343 12.72L441.679 12.912C441.327 15.12 441.151 17.616 441.151 20.4L441.343 20.448C442.431 18.944 443.839 17.408 445.567 15.84C447.327 14.24 448.911 13.2 450.319 12.72C452.271 12.72 453.535 13.6 454.111 15.36C454.495 16.608 454.687 18.144 454.687 19.968C454.687 20.256 454.687 20.576 454.687 20.928L454.447 34.416C455.375 34.64 456.319 34.96 457.279 35.376L457.135 36.288C455.599 36.096 454.287 36 453.199 36C452.143 36 451.135 36.032 450.175 36.096V35.424C450.687 32.928 451.007 28.816 451.135 23.088C451.167 22.768 451.183 22.416 451.183 22.032ZM470.377 33.264C472.393 33.264 474.361 32.416 476.281 30.72L476.809 31.2C474.985 33.696 472.649 35.536 469.801 36.72C466.985 36.72 464.873 35.84 463.465 34.08C462.057 32.32 461.353 29.872 461.353 26.736C461.353 23.6 462.233 20.688 463.993 18C465.753 15.28 468.105 13.52 471.049 12.72C473.193 12.72 474.697 13.152 475.561 14.016C476.425 14.848 476.857 16.336 476.857 18.48C476.857 19.696 476.697 20.736 476.377 21.6C477.049 21.856 477.833 21.984 478.729 21.984L478.681 22.992C478.489 22.992 478.281 22.992 478.057 22.992C474.473 22.992 470.185 23.52 465.193 24.576C465.193 28.832 466.025 31.488 467.689 32.544C468.393 33.024 469.289 33.264 470.377 33.264ZM473.017 21.36C473.017 19.248 472.809 17.776 472.393 16.944C472.009 16.112 471.177 15.696 469.897 15.696C468.617 15.696 467.513 16.08 466.585 16.848C465.721 18.64 465.257 20.8 465.193 23.328C467.817 22.464 470.425 21.808 473.017 21.36ZM487.071 6.432C487.071 8.032 486.527 9.664 485.439 11.328C484.351 12.992 483.071 14.32 481.599 15.312L481.119 14.832C481.791 14.032 482.399 13.056 482.943 11.904C483.487 10.72 483.775 9.696 483.807 8.832C482.975 8.064 482.335 7.264 481.887 6.432C482.079 6.048 482.447 5.616 482.991 5.136C483.535 4.624 484.031 4.256 484.479 4.032C484.895 4.288 485.375 4.672 485.919 5.184C486.463 5.664 486.847 6.08 487.071 6.432ZM494.073 30.72L494.169 32.736V32.928C495.641 33.472 497.033 33.744 498.345 33.744C499.657 33.744 500.745 33.456 501.609 32.88C502.505 32.304 502.953 31.344 502.953 30C502.953 29.008 501.273 27.648 497.913 25.92C496.665 25.28 495.513 24.512 494.457 23.616C493.401 22.688 492.873 21.792 492.873 20.928C492.873 19.232 493.769 17.536 495.561 15.84C497.385 14.112 499.097 13.072 500.697 12.72C502.745 12.72 504.729 12.976 506.649 13.488V14.16C505.401 15.696 504.713 17.376 504.585 19.2H503.529C503.529 17.952 503.497 16.976 503.433 16.272C502.185 15.888 501.001 15.696 499.881 15.696C498.761 15.696 497.753 15.92 496.857 16.368C495.993 16.784 495.561 17.472 495.561 18.432C495.561 19.008 496.089 19.68 497.145 20.448C498.201 21.216 499.353 21.92 500.601 22.56C501.849 23.168 503.001 23.936 504.057 24.864C505.113 25.792 505.641 26.688 505.641 27.552C505.641 29.504 504.745 31.392 502.953 33.216C501.193 35.008 499.401 36.176 497.577 36.72C495.273 36.72 493.065 36.384 490.953 35.712V35.04C492.201 33.504 492.889 31.824 493.017 30H494.073C494.073 30 494.073 30.24 494.073 30.72ZM517.752 4.848L531.576 4.416C535.864 4.416 539.112 5.52 541.32 7.728C543.56 9.936 544.68 13.232 544.68 17.616C544.68 21.968 543.512 25.952 541.176 29.568C538.84 33.184 535.672 35.568 531.672 36.72C529.368 36.72 526.792 36.112 523.944 34.896C523.4 35.728 523.032 36.448 522.84 37.056L521.832 36.816C522.6 33.328 522.984 28.208 522.984 21.456C522.984 14.704 522.808 9.824 522.456 6.816C520.92 6.304 519.352 6.048 517.752 6.048V4.848ZM538.392 10.656C537.688 9.248 536.68 8.16 535.368 7.392C534.088 6.592 532.68 6.192 531.144 6.192C529.608 6.192 528.264 6.4 527.112 6.816C526.824 9.824 526.68 14.064 526.68 19.536C526.68 24.976 526.76 29.104 526.92 31.92C528.648 32.816 530.616 33.264 532.824 33.264C535.032 33.264 536.744 32.72 537.96 31.632C539.592 28.656 540.408 24.992 540.408 20.64C540.408 16.672 539.736 13.344 538.392 10.656ZM549.103 27.552C549.103 24.224 549.999 21.184 551.791 18.432C553.583 15.648 555.983 13.744 558.991 12.72C561.135 12.72 563.375 13.056 565.711 13.728C566.159 13.056 566.527 12.208 566.815 11.184L567.823 11.472C567.119 14.352 566.767 19.44 566.767 26.736C566.767 30 566.879 32.56 567.103 34.416C567.871 34.672 568.735 34.8 569.695 34.8V35.808C567.647 35.904 565.487 36.208 563.215 36.72L562.879 36.528C563.231 34.32 563.407 31.824 563.407 29.04L563.215 28.992C562.095 30.592 560.767 32.144 559.231 33.648C557.695 35.152 556.239 36.176 554.863 36.72C553.103 36.72 551.695 35.744 550.639 33.792C549.615 31.84 549.103 29.76 549.103 27.552ZM552.943 25.392C552.943 26.96 553.215 28.592 553.759 30.288C554.335 31.952 555.151 32.784 556.207 32.784C557.327 32.784 558.687 31.984 560.287 30.384C561.887 28.784 562.927 27.344 563.407 26.064C563.407 21.296 563.295 18.224 563.071 16.848C561.375 16.08 559.727 15.696 558.127 15.696C556.559 15.696 555.359 16.08 554.527 16.848C553.471 19.28 552.943 22.128 552.943 25.392ZM579.903 12.912C579.295 16.624 578.991 21.36 578.991 27.12C578.991 30.896 579.663 32.784 581.007 32.784C582.159 32.784 583.567 31.984 585.231 30.384C586.927 28.752 588.015 27.312 588.495 26.064C588.495 21.424 588.319 17.696 587.967 14.88C587.103 14.688 586.095 14.384 584.943 13.968L585.039 13.056C586.831 13.312 588.527 13.44 590.127 13.44C591.727 13.44 593.343 13.344 594.975 13.152L595.119 14.064C594.159 14.48 593.215 14.8 592.287 15.024C591.999 17.2 591.855 19.712 591.855 22.56V26.592C591.855 31.68 591.967 35.36 592.191 37.632C591.583 39.392 590.303 41.104 588.351 42.768C586.399 44.464 584.463 45.648 582.543 46.32C579.599 46.32 576.911 45.856 574.479 44.928V44.304C575.663 42.896 576.335 41.104 576.495 38.928H577.503C577.503 40.176 577.535 41.152 577.599 41.856C579.391 42.848 581.439 43.344 583.743 43.344C585.023 43.344 586.063 42.96 586.863 42.192C587.599 40.24 588.047 38.464 588.207 36.864C588.399 35.296 588.495 32.688 588.495 29.04L588.303 28.992C587.343 30.432 586.015 31.968 584.319 33.6C582.623 35.2 581.103 36.24 579.759 36.72C577.903 36.72 576.703 35.84 576.159 34.08C575.743 32.832 575.535 31.296 575.535 29.472C575.535 29.184 575.535 28.864 575.535 28.512L575.775 15.024C575.007 14.768 574.143 14.64 573.183 14.64V13.632C575.199 13.536 577.327 13.232 579.567 12.72L579.903 12.912ZM146.133 79.04C146.133 82.048 145.317 85.296 143.685 88.784C142.053 92.24 140.101 95.184 137.829 97.616C137.029 98.032 136.133 98.4 135.141 98.72C133.669 98.368 132.341 95.12 131.157 88.976C129.653 92.208 127.733 95.088 125.397 97.616C124.597 98.032 123.701 98.4 122.709 98.72C122.165 98.592 121.653 98.144 121.173 97.376C120.725 96.608 120.165 94.96 119.493 92.432C118.853 89.872 118.277 86.944 117.765 83.648C117.253 80.352 116.853 78.16 116.565 77.072C115.797 76.816 114.933 76.688 113.973 76.688V75.68C116.117 75.584 118.389 75.264 120.789 74.72L121.125 74.912C120.869 75.808 120.741 76.816 120.741 77.936C120.741 79.024 120.965 80.976 121.413 83.792C121.861 86.576 122.341 89.04 122.853 91.184C123.365 93.296 123.765 94.592 124.053 95.072C124.341 95.552 124.645 95.792 124.965 95.792C126.661 93.552 127.893 91.328 128.661 89.12C129.461 86.88 129.861 84.608 129.861 82.304C129.861 80 129.573 78.256 128.997 77.072C128.229 76.816 127.365 76.688 126.405 76.688V75.68C128.293 75.808 130.629 75.872 133.413 75.872C139.205 75.872 144.021 75.392 147.861 74.432L148.053 75.296C147.637 75.616 146.869 76.064 145.749 76.64C146.005 77.472 146.133 78.272 146.133 79.04ZM138.597 76.736C136.005 76.736 134.197 77.056 133.173 77.696C133.173 78.944 133.397 80.976 133.845 83.792C134.293 86.576 134.773 89.04 135.285 91.184C135.797 93.296 136.197 94.592 136.485 95.072C136.773 95.552 137.077 95.792 137.397 95.792C139.093 93.552 140.325 91.328 141.093 89.12C141.893 86.88 142.293 84.368 142.293 81.584C142.293 79.984 141.957 78.512 141.285 77.168C140.357 76.88 139.461 76.736 138.597 76.736ZM157.151 84.848V88.88C157.151 92.336 157.263 94.896 157.487 96.56C158.383 96.752 159.391 97.056 160.511 97.472L160.415 98.384C158.623 98.128 156.927 98 155.327 98C153.727 98 152.111 98.096 150.479 98.288L150.335 97.376C151.295 96.96 152.239 96.64 153.167 96.416C153.455 94.24 153.599 91.728 153.599 88.88V84.848C153.599 82.256 153.471 79.664 153.215 77.072C152.383 76.816 151.519 76.688 150.623 76.688V75.68C153.087 75.52 155.359 75.2 157.439 74.72L157.775 74.912C157.359 77.376 157.151 80.688 157.151 84.848ZM158.015 68.24C157.791 68.656 157.391 69.184 156.815 69.824C156.271 70.464 155.807 70.912 155.423 71.168C155.039 70.912 154.559 70.464 153.983 69.824C153.439 69.184 153.055 68.656 152.831 68.24C153.023 67.856 153.391 67.424 153.935 66.944C154.479 66.432 154.975 66.064 155.423 65.84C155.839 66.096 156.319 66.48 156.863 66.992C157.407 67.472 157.791 67.888 158.015 68.24ZM169.973 88.64C169.973 93.056 170.453 95.264 171.413 95.264C173.173 95.264 174.997 94.416 176.885 92.72L177.365 93.2C175.509 95.792 173.253 97.632 170.597 98.72C168.773 98.72 167.605 97.888 167.093 96.224C166.645 94.816 166.421 92.384 166.421 88.928C166.421 88.32 166.421 87.664 166.421 86.96L166.613 77.408H164.021L163.925 77.312C163.925 76.8 163.973 76.448 164.069 76.256C166.757 74.496 168.517 72.672 169.349 70.784C169.733 70.688 170.181 70.64 170.693 70.64L170.885 70.736C170.565 72.656 170.373 74.208 170.309 75.392L177.029 75.152L177.221 75.344C176.997 75.92 176.789 76.672 176.597 77.6C174.965 77.504 172.821 77.456 170.165 77.456L169.973 86.96C169.973 87.536 169.973 88.096 169.973 88.64ZM196.793 84.032C196.793 80.448 196.057 78.656 194.585 78.656C193.337 78.656 191.865 79.44 190.169 81.008C188.473 82.576 187.337 84.032 186.761 85.376C186.761 90.016 186.937 93.744 187.289 96.56C188.153 96.752 189.161 97.056 190.312 97.472L190.217 98.384C188.425 98.128 186.729 98 185.129 98C183.529 98 181.913 98.096 180.281 98.288L180.137 97.376C181.097 96.96 182.041 96.64 182.969 96.416C183.257 94.24 183.401 91.728 183.401 88.88V79.952C183.401 71.536 183.017 65.808 182.249 62.768L183.257 62.48C183.545 63.504 183.913 64.352 184.361 65.024C186.121 64.736 187.833 64.352 189.497 63.872L189.737 64.736C189.129 65.216 188.377 65.68 187.481 66.128C187.001 68.752 186.761 74.176 186.761 82.4L186.953 82.448C188.041 80.944 189.449 79.408 191.177 77.84C192.937 76.24 194.521 75.2 195.929 74.72C197.881 74.72 199.145 75.6 199.721 77.36C200.105 78.608 200.297 80.144 200.297 81.968C200.297 82.256 200.297 82.576 200.297 82.928L200.057 96.416C200.825 96.672 201.689 96.8 202.649 96.8V97.808C200.601 97.904 198.441 98.208 196.169 98.72L195.833 98.528C196.345 95.424 196.649 90.944 196.745 85.088C196.777 84.768 196.793 84.416 196.793 84.032ZM232.585 69.536C231.209 68.864 229.593 68.528 227.737 68.528C225.881 68.528 224.425 68.608 223.369 68.768C223.049 70.944 222.889 74.832 222.889 80.432C224.265 80.688 225.609 80.816 226.921 80.816C229.417 80.816 231.001 80.128 231.673 78.752L232.633 78.944C232.345 79.968 232.201 81.2 232.201 82.64C232.201 84.048 232.297 85.44 232.489 86.816L231.385 87.008C230.905 85.792 230.585 84.368 230.425 82.736C229.241 82.64 228.009 82.592 226.729 82.592C225.449 82.592 224.169 82.672 222.889 82.832C222.921 89.36 223.129 93.856 223.513 96.32C225.113 96.48 226.873 96.784 228.793 97.232L228.649 98.384C226.281 98.128 223.705 98 220.921 98C218.169 98 215.945 98.128 214.249 98.384L214.057 97.184C215.497 96.736 217.033 96.4 218.665 96.176C219.017 93.552 219.193 89.424 219.193 83.792V80.96C219.193 77.44 218.985 73.312 218.569 68.576C217.289 68.416 215.753 68.048 213.961 67.472L214.153 66.272C217.481 66.592 221.305 66.752 225.625 66.752C229.945 66.752 233.689 66.576 236.857 66.224L237.049 67.184C235.385 68.88 234.441 71.408 234.217 74.768H233.017C232.729 73.392 232.585 71.648 232.585 69.536ZM249.303 98.384C247.671 98.128 245.895 98 243.975 98C242.055 98 240.183 98.096 238.359 98.288L238.215 97.376C239.175 96.96 240.119 96.64 241.047 96.416C241.335 94.24 241.479 91.728 241.479 88.88V84.848C241.479 81.904 241.367 79.296 241.143 77.024C240.375 76.768 239.511 76.64 238.551 76.64V75.632C240.599 75.536 242.759 75.232 245.031 74.72L245.367 74.912C245.015 77.12 244.839 79.616 244.839 82.4L245.031 82.448C245.479 81.168 246.295 79.696 247.479 78.032C248.695 76.336 249.815 75.232 250.839 74.72C252.279 74.72 253.687 74.976 255.063 75.488V76.16C253.847 77.696 253.159 79.696 252.999 82.16H251.943C251.943 80.912 251.911 79.936 251.847 79.232C251.431 78.912 250.887 78.752 250.215 78.752C249.255 78.752 248.231 79.52 247.143 81.056C246.087 82.56 245.319 84 244.839 85.376C244.839 90.016 245.015 93.744 245.367 96.56C246.967 96.784 248.311 97.088 249.399 97.472L249.303 98.384ZM266.096 95.264C268.112 95.264 270.08 94.416 272 92.72L272.528 93.2C270.704 95.696 268.368 97.536 265.52 98.72C262.704 98.72 260.592 97.84 259.184 96.08C257.776 94.32 257.072 91.872 257.072 88.736C257.072 85.6 257.952 82.688 259.712 80C261.472 77.28 263.824 75.52 266.768 74.72C268.912 74.72 270.416 75.152 271.28 76.016C272.144 76.848 272.576 78.336 272.576 80.48C272.576 81.696 272.416 82.736 272.096 83.6C272.768 83.856 273.552 83.984 274.448 83.984L274.4 84.992C274.208 84.992 274 84.992 273.776 84.992C270.192 84.992 265.904 85.52 260.912 86.576C260.912 90.832 261.744 93.488 263.408 94.544C264.112 95.024 265.008 95.264 266.096 95.264ZM268.736 83.36C268.736 81.248 268.528 79.776 268.112 78.944C267.728 78.112 266.896 77.696 265.616 77.696C264.336 77.696 263.232 78.08 262.304 78.848C261.44 80.64 260.976 82.8 260.912 85.328C263.536 84.464 266.144 83.808 268.736 83.36ZM279.573 92.72L279.669 94.736V94.928C281.141 95.472 282.533 95.744 283.845 95.744C285.157 95.744 286.245 95.456 287.109 94.88C288.005 94.304 288.453 93.344 288.453 92C288.453 91.008 286.773 89.648 283.413 87.92C282.165 87.28 281.013 86.512 279.957 85.616C278.901 84.688 278.373 83.792 278.373 82.928C278.373 81.232 279.269 79.536 281.061 77.84C282.885 76.112 284.597 75.072 286.197 74.72C288.245 74.72 290.229 74.976 292.149 75.488V76.16C290.901 77.696 290.213 79.376 290.085 81.2H289.029C289.029 79.952 288.997 78.976 288.933 78.272C287.685 77.888 286.501 77.696 285.381 77.696C284.261 77.696 283.253 77.92 282.357 78.368C281.493 78.784 281.061 79.472 281.061 80.432C281.061 81.008 281.589 81.68 282.645 82.448C283.701 83.216 284.853 83.92 286.101 84.56C287.349 85.168 288.501 85.936 289.557 86.864C290.613 87.792 291.141 88.688 291.141 89.552C291.141 91.504 290.245 93.392 288.453 95.216C286.693 97.008 284.901 98.176 283.077 98.72C280.773 98.72 278.565 98.384 276.453 97.712V97.04C277.701 95.504 278.389 93.824 278.517 92H279.573C279.573 92 279.573 92.24 279.573 92.72ZM312.339 84.032C312.339 80.448 311.603 78.656 310.131 78.656C308.883 78.656 307.411 79.44 305.715 81.008C304.019 82.576 302.883 84.032 302.307 85.376C302.307 90.016 302.483 93.744 302.835 96.56C303.699 96.752 304.707 97.056 305.859 97.472L305.763 98.384C303.971 98.128 302.275 98 300.675 98C299.075 98 297.459 98.096 295.827 98.288L295.683 97.376C296.643 96.96 297.587 96.64 298.515 96.416C298.803 94.24 298.947 91.728 298.947 88.88V79.952C298.947 71.536 298.563 65.808 297.795 62.768L298.803 62.48C299.091 63.504 299.459 64.352 299.907 65.024C301.667 64.736 303.379 64.352 305.043 63.872L305.283 64.736C304.675 65.216 303.923 65.68 303.027 66.128C302.547 68.752 302.307 74.176 302.307 82.4L302.499 82.448C303.587 80.944 304.995 79.408 306.723 77.84C308.483 76.24 310.067 75.2 311.475 74.72C313.427 74.72 314.691 75.6 315.267 77.36C315.651 78.608 315.843 80.144 315.843 81.968C315.843 82.256 315.843 82.576 315.843 82.928L315.603 96.416C316.371 96.672 317.235 96.8 318.195 96.8V97.808C316.147 97.904 313.987 98.208 311.715 98.72L311.379 98.528C311.891 95.424 312.195 90.944 312.291 85.088C312.323 84.768 312.339 84.416 312.339 84.032ZM329.268 66.848L343.092 66.416C346.964 66.416 349.508 66.896 350.724 67.856C351.908 68.752 352.5 70.112 352.5 71.936C352.5 73.76 351.876 75.408 350.628 76.88C349.38 78.32 347.86 79.408 346.068 80.144V80.336C348.372 80.336 350.244 80.864 351.684 81.92C353.124 82.976 353.844 84.544 353.844 86.624C353.844 89.184 352.644 91.664 350.244 94.064C347.876 96.432 345.3 97.984 342.516 98.72C340.5 98.72 338.148 98.112 335.46 96.896C334.916 97.728 334.548 98.448 334.356 99.056L333.348 98.816C334.116 95.328 334.5 90.208 334.5 83.456C334.5 76.704 334.324 71.824 333.972 68.816C332.436 68.304 330.868 68.048 329.268 68.048V66.848ZM341.124 79.664C343.492 79.664 345.204 79.328 346.26 78.656C347.412 77.376 347.988 75.68 347.988 73.568C347.988 69.984 346.084 68.192 342.276 68.192C340.996 68.192 339.78 68.4 338.628 68.816C338.34 71.824 338.196 76.064 338.196 81.536C338.196 86.976 338.276 91.104 338.436 93.92C340.1 94.816 341.876 95.264 343.764 95.264C345.684 95.264 347.204 94.88 348.324 94.112C349.06 92.544 349.428 90.784 349.428 88.832C349.428 83.904 346.388 81.44 340.308 81.44L340.548 79.664H341.124ZM365.084 86.96C365.084 87.888 365.084 89.36 365.084 91.376C365.084 93.36 365.18 95.088 365.372 96.56C366.268 96.752 367.276 97.056 368.396 97.472L368.3 98.384C366.508 98.128 364.812 98 363.212 98C361.612 98 359.996 98.096 358.364 98.288L358.22 97.376C359.18 96.96 360.124 96.64 361.052 96.416C361.34 94.368 361.5 91.216 361.532 86.96L361.628 77.984C361.628 77.152 361.628 75.664 361.628 73.52C361.628 71.344 361.516 69.12 361.292 66.848C360.46 66.592 359.596 66.464 358.7 66.464V65.456C361.9 65.232 364.956 64.704 367.868 63.872L368.108 64.736C367.5 65.216 366.748 65.68 365.852 66.128C365.468 68.24 365.244 72.192 365.18 77.984L365.084 86.96ZM382.165 98.72C379.381 98.72 377.093 97.792 375.301 95.936C373.509 94.048 372.613 91.584 372.613 88.544C372.613 85.504 373.525 82.64 375.349 79.952C377.205 77.232 379.637 75.488 382.645 74.72C385.621 74.72 387.877 75.584 389.413 77.312C390.949 79.04 391.717 81.424 391.717 84.464C391.717 87.504 390.821 90.368 389.029 93.056C387.237 95.744 384.949 97.632 382.165 98.72ZM381.349 77.696C380.005 77.696 378.901 78.08 378.037 78.848C376.981 80.864 376.453 83.184 376.453 85.808C376.453 88.432 377.045 90.752 378.229 92.768C379.413 94.752 380.997 95.744 382.981 95.744C384.325 95.744 385.445 95.344 386.341 94.544C387.365 92.592 387.877 90.224 387.877 87.44C387.877 84.624 387.333 82.304 386.245 80.48C385.189 78.624 383.557 77.696 381.349 77.696ZM405.603 98.72C402.819 98.72 400.531 97.792 398.739 95.936C396.947 94.048 396.051 91.584 396.051 88.544C396.051 85.504 396.963 82.64 398.787 79.952C400.643 77.232 403.075 75.488 406.083 74.72C409.059 74.72 411.315 75.584 412.851 77.312C414.387 79.04 415.155 81.424 415.155 84.464C415.155 87.504 414.259 90.368 412.467 93.056C410.675 95.744 408.387 97.632 405.603 98.72ZM404.787 77.696C403.443 77.696 402.339 78.08 401.475 78.848C400.419 80.864 399.891 83.184 399.891 85.808C399.891 88.432 400.483 90.752 401.667 92.768C402.851 94.752 404.435 95.744 406.419 95.744C407.763 95.744 408.883 95.344 409.779 94.544C410.803 92.592 411.315 90.224 411.315 87.44C411.315 84.624 410.771 82.304 409.683 80.48C408.627 78.624 406.995 77.696 404.787 77.696ZM454.336 98.288C452.8 98.096 451.488 98 450.4 98C449.344 98 448.368 98.032 447.472 98.096V97.424C447.952 94.928 448.256 90.816 448.384 85.088C448.384 84.832 448.384 84.576 448.384 84.32C448.384 80.544 447.712 78.656 446.368 78.656C445.216 78.656 443.808 79.44 442.144 81.008C440.48 82.576 439.36 84.032 438.784 85.376L438.592 96.512C439.68 96.736 440.784 97.056 441.904 97.472L441.808 98.384C440.016 98.128 438.56 98 437.44 98C436.32 98 435.312 98.032 434.416 98.096V97.424C434.896 94.928 435.2 90.816 435.328 85.088C435.328 84.832 435.328 84.576 435.328 84.32C435.328 80.544 434.656 78.656 433.312 78.656C432.16 78.656 430.752 79.44 429.088 81.008C427.456 82.576 426.352 84.032 425.776 85.376C425.776 90.016 425.952 93.744 426.304 96.56C427.168 96.752 428.176 97.056 429.328 97.472L429.232 98.384C427.44 98.128 425.744 98 424.144 98C422.544 98 420.928 98.096 419.296 98.288L419.152 97.376C420.112 96.96 421.056 96.64 421.984 96.416C422.272 94.24 422.416 91.728 422.416 88.88V84.848C422.416 81.904 422.304 79.296 422.08 77.024C421.312 76.768 420.448 76.64 419.488 76.64V75.632C421.536 75.536 423.696 75.232 425.968 74.72L426.304 74.912C425.952 77.12 425.776 79.616 425.776 82.4L425.968 82.448C426.992 80.944 428.336 79.408 430 77.84C431.664 76.24 433.168 75.2 434.512 74.72C437.392 74.72 438.832 77.28 438.832 82.4L439.024 82.448C440.048 80.944 441.392 79.408 443.056 77.84C444.72 76.24 446.224 75.2 447.568 74.72C450.448 74.72 451.888 77.232 451.888 82.256C451.888 82.48 451.888 82.704 451.888 82.928L451.648 96.416C452.576 96.64 453.52 96.96 454.48 97.376L454.336 98.288ZM460.605 92.72L460.701 94.736V94.928C462.173 95.472 463.565 95.744 464.877 95.744C466.189 95.744 467.277 95.456 468.141 94.88C469.037 94.304 469.485 93.344 469.485 92C469.485 91.008 467.805 89.648 464.445 87.92C463.197 87.28 462.045 86.512 460.989 85.616C459.933 84.688 459.405 83.792 459.405 82.928C459.405 81.232 460.301 79.536 462.093 77.84C463.917 76.112 465.629 75.072 467.229 74.72C469.277 74.72 471.261 74.976 473.181 75.488V76.16C471.933 77.696 471.245 79.376 471.117 81.2H470.061C470.061 79.952 470.029 78.976 469.965 78.272C468.717 77.888 467.533 77.696 466.413 77.696C465.293 77.696 464.285 77.92 463.389 78.368C462.525 78.784 462.093 79.472 462.093 80.432C462.093 81.008 462.621 81.68 463.677 82.448C464.733 83.216 465.885 83.92 467.133 84.56C468.381 85.168 469.533 85.936 470.589 86.864C471.645 87.792 472.173 88.688 472.173 89.552C472.173 91.504 471.277 93.392 469.485 95.216C467.725 97.008 465.933 98.176 464.109 98.72C461.805 98.72 459.597 98.384 457.485 97.712V97.04C458.733 95.504 459.421 93.824 459.549 92H460.605C460.605 92 460.605 92.24 460.605 92.72Z" fill="black"/>
</svg>
