<svg width="65" height="28" viewBox="0 0 65 28" fill="none" xmlns="http://www.w3.org/2000/svg">
<path d="M6.48 27.76C5.84 27.76 5.52 27.5067 5.52 27C5.52 26.4933 5.85333 25.8667 6.52 25.12C7.13333 24.4533 8.13333 23.7467 9.52 23C10.9067 22.2267 12.4933 21.5467 14.28 20.96C14.68 20.8267 15 20.76 15.24 20.76C15.56 20.76 15.72 20.8267 15.72 20.96C15.72 21.0933 15.56 21.2 15.24 21.28C14.12 21.5733 13.0133 22 11.92 22.56C10.8267 23.0933 9.85333 23.6667 9 24.28C7.64 25.2667 6.96 25.9467 6.96 26.32C6.96 26.5333 7.17333 26.64 7.6 26.64C8.53333 26.64 9.97333 26.0667 11.92 24.92C13.2 24.1733 14.4133 23.3333 15.56 22.4C16.7067 21.44 17.6267 20.4933 18.32 19.56C19.04 18.6267 19.4 17.7867 19.4 17.04C19.4 16.1867 18.8933 15.52 17.88 15.04C16.92 15.5467 15.92 16.04 14.88 16.52C13.84 16.9733 12.8533 17.3867 11.92 17.76C10.9867 18.1333 10.1733 18.4133 9.48 18.6C8.81333 18.7867 8.36 18.8533 8.12 18.8C7.32 18.64 6.92 18.3467 6.92 17.92C6.92 17.5467 7.17333 17.12 7.68 16.64C8.21333 16.16 8.8 15.72 9.44 15.32C10.1067 14.92 10.64 14.6533 11.04 14.52C12.56 13.9867 14.0133 13.72 15.4 13.72C16.36 13.72 17.2533 13.8667 18.08 14.16C19.04 13.68 20.0267 13 21.04 12.12C22.08 11.24 23 10.2933 23.8 9.28C24.6 8.26667 25.12 7.32 25.36 6.44C25.4933 5.85333 25.56 5.42667 25.56 5.16C25.56 4.12 25.12 3.36 24.24 2.88C23.3867 2.37333 22.2267 2.12 20.76 2.12C18.5467 2.12 15.96 2.58667 13 3.52C11.0267 4.13333 9.2 4.86667 7.52 5.72C5.86667 6.54667 4.53333 7.4 3.52 8.28C2.50667 9.13333 1.96 9.94667 1.88 10.72C1.85333 10.96 1.76 11.1467 1.6 11.28C1.44 11.4133 1.26667 11.48 1.08 11.48C0.76 11.48 0.6 11.28 0.6 10.88C0.6 9.52 1.78667 8.08 4.16 6.56C5.36 5.76 6.69333 5.02667 8.16 4.36C9.65333 3.66666 11.2 3.06666 12.8 2.56C14.4 2.05333 15.96 1.66667 17.48 1.4C19.0267 1.10667 20.44 0.96 21.72 0.96C23.4533 0.96 24.8133 1.24 25.8 1.8C26.8133 2.36 27.32 3.24 27.32 4.44C27.32 4.89333 27.24 5.4 27.08 5.96C26.7867 7.05333 26.2133 8.13333 25.36 9.2C24.5067 10.2667 23.5067 11.2533 22.36 12.16C21.2133 13.04 20.0267 13.8 18.8 14.44C20.2933 15.4 21.04 16.48 21.04 17.68C21.04 19.1467 20.1067 20.6533 18.24 22.2C17.3067 22.9733 16.28 23.6933 15.16 24.36C14.04 25.0267 12.92 25.6133 11.8 26.12C10.68 26.6267 9.65333 27.0267 8.72 27.32C7.78667 27.6133 7.04 27.76 6.48 27.76ZM4.16 26.48C3.46667 26.3467 2.97333 26.1067 2.68 25.76C2.41333 25.4133 2.28 24.9067 2.28 24.24C2.28 24.1067 2.29333 23.9067 2.32 23.64C2.34667 23.3733 2.38667 23.0267 2.44 22.6C2.57333 21.6667 2.92 20.5733 3.48 19.32C4.06667 18.0667 4.77333 16.7467 5.6 15.36C6.45333 13.9733 7.36 12.6133 8.32 11.28C9.30667 9.94667 10.28 8.73333 11.24 7.64L11 7.68C10.8667 7.68 10.8 7.61333 10.8 7.48C10.8 7.37333 10.8933 7.14667 11.08 6.8C11.4 6.21333 11.7733 5.77333 12.2 5.48C12.4133 5.32 12.5733 5.2 12.68 5.12C12.7867 5.04 12.8533 4.98667 12.88 4.96C13.0133 4.82666 13.2267 4.76 13.52 4.76C13.8667 4.76 14.1867 4.85333 14.48 5.04C14.8 5.22667 14.96 5.41333 14.96 5.6C14.96 5.68 14.8933 5.78667 14.76 5.92C13.5867 6.96 12.2 8.52 10.6 10.6C9.50667 12.0133 8.48 13.44 7.52 14.88C6.56 16.32 5.76 17.64 5.12 18.84C4.50667 20.04 4.14667 21.0133 4.04 21.76L3.84 22.56C3.81333 22.6133 3.78667 22.7067 3.76 22.84C3.76 22.9733 3.73333 23.1467 3.68 23.36C3.57333 23.7067 3.52 24.0533 3.52 24.4C3.52 24.9867 3.74667 25.3467 4.2 25.48C4.54667 25.5333 4.72 25.7333 4.72 26.08C4.72 26.4 4.53333 26.5333 4.16 26.48ZM9.36 17.68C9.46667 17.7333 9.57333 17.76 9.68 17.76C10.1067 17.76 10.8933 17.5333 12.04 17.08C12.7867 16.7867 13.5733 16.4533 14.4 16.08C15.2533 15.68 16.1333 15.24 17.04 14.76C16.8267 14.7067 16.5733 14.6667 16.28 14.64C16.0133 14.6133 15.7333 14.6 15.44 14.6C14.3467 14.6 13.2533 14.84 12.16 15.32H12.12C11.6933 15.5067 11.2933 15.6933 10.92 15.88C10.5733 16.0667 10.2533 16.2267 9.96 16.36C9.4 16.6267 9.12 16.9333 9.12 17.28C9.12 17.4133 9.2 17.5467 9.36 17.68ZM21.7306 27.64C21.4373 27.64 21.184 27.5467 20.9706 27.36C20.784 27.1733 20.704 26.9467 20.7306 26.68C20.784 25.5867 20.984 24.5333 21.3306 23.52C21.704 22.5067 22.2373 21.2933 22.9306 19.88C23.0106 19.6933 23.0773 19.5333 23.1306 19.4C23.2106 19.24 23.2773 19.1067 23.3306 19C23.9173 17.7467 24.5173 16.5467 25.1306 15.4C25.744 14.2533 26.3573 13.1333 26.9706 12.04L27.5306 11.04C28.1706 9.89333 28.7306 8.97333 29.2106 8.28C29.6906 7.56 30.1706 7.04 30.6506 6.72C31.264 6.34667 31.6373 6.16 31.7706 6.16C31.984 6.16 32.1973 6.34667 32.4106 6.72C32.544 6.98667 32.2773 7.64 31.6106 8.68C31.264 9.21333 30.824 9.88 30.2906 10.68C29.784 11.48 29.1706 12.3867 28.4506 13.4C28.3173 13.5867 28.0906 13.92 27.7706 14.4C27.4773 14.8533 27.0773 15.4533 26.5706 16.2C26.064 16.9467 25.624 17.6267 25.2506 18.24C24.8773 18.8267 24.5706 19.3467 24.3306 19.8C23.8506 20.68 23.3973 21.6267 22.9706 22.64C22.544 23.6267 22.3306 24.4 22.3306 24.96C22.3306 25.4667 22.5306 25.72 22.9306 25.72C23.5706 25.72 24.5973 25.1733 26.0106 24.08C26.1706 24.1067 26.2506 24.1867 26.2506 24.32C26.2506 24.4267 26.1173 24.6133 25.8506 24.88C25.6106 25.12 25.304 25.3733 24.9306 25.64C24.584 25.9333 24.1706 26.2667 23.6906 26.64L23.0506 27.12C22.624 27.4667 22.184 27.64 21.7306 27.64ZM29.1025 25.68C28.0625 25.68 27.5425 25.2133 27.5425 24.28C27.5425 24.2267 27.5425 24.1333 27.5425 24C27.5692 23.8667 27.5958 23.7067 27.6225 23.52C27.8892 22.4267 28.4225 21.3733 29.2225 20.36C30.0492 19.32 30.9958 18.4133 32.0625 17.64C32.4625 17.32 33.1025 17.16 33.9825 17.16C34.4892 17.16 34.9292 17.24 35.3025 17.4C35.7025 17.5333 35.9825 17.7467 36.1425 18.04C36.3025 18.3067 36.3825 18.6133 36.3825 18.96C36.3825 19.0133 36.3692 19.0933 36.3425 19.2C36.3425 19.3067 36.3292 19.4267 36.3025 19.56C36.3558 19.5333 36.4358 19.52 36.5425 19.52C36.6758 19.52 36.8358 19.5067 37.0225 19.48C37.2092 19.4533 37.3825 19.4267 37.5425 19.4C37.7292 19.3733 37.9158 19.36 38.1025 19.36H38.2625C38.5558 19.36 38.5825 19.48 38.3425 19.72C38.1292 19.9333 37.8358 20.0667 37.4625 20.12L36.1025 20.28C35.8358 21.0267 35.3692 21.7733 34.7025 22.52C34.0625 23.2667 33.3425 23.92 32.5425 24.48C31.7692 25.0133 31.0358 25.36 30.3425 25.52C29.9425 25.6267 29.5292 25.68 29.1025 25.68ZM34.2225 19.72C34.3825 19.72 34.5692 19.72 34.7825 19.72C35.0225 19.6933 35.2892 19.6667 35.5825 19.64C35.6092 19.5867 35.6225 19.4667 35.6225 19.28C35.6225 18.8 35.4225 18.4667 35.0225 18.28C34.8092 18.1467 34.5425 18.08 34.2225 18.08C33.8225 18.08 33.4092 18.2133 32.9825 18.48C32.5825 18.72 32.1558 19.04 31.7025 19.44C32.2625 19.6267 33.1025 19.72 34.2225 19.72ZM30.3025 24.28C30.5692 24.28 30.9425 24.16 31.4225 23.92C31.9292 23.6533 32.4492 23.3067 32.9825 22.88C33.5158 22.4533 33.9958 22 34.4225 21.52C34.5558 21.3867 34.6892 21.2267 34.8225 21.04C34.9558 20.8267 35.1025 20.6133 35.2625 20.4L34.3025 20.52C32.8092 20.7333 31.4758 20.8533 30.3025 20.88C29.7158 21.84 29.3558 22.64 29.2225 23.28C29.1958 23.6267 29.2892 23.88 29.5025 24.04C29.7158 24.2 29.9825 24.28 30.3025 24.28ZM38.5556 25.68C37.5156 25.68 36.9956 25.2133 36.9956 24.28C36.9956 24.2267 36.9956 24.1333 36.9956 24C37.0223 23.8667 37.049 23.7067 37.0756 23.52C37.3423 22.4267 37.8756 21.3733 38.6756 20.36C39.5023 19.32 40.449 18.4133 41.5156 17.64C41.9156 17.32 42.5556 17.16 43.4356 17.16C43.9423 17.16 44.3823 17.24 44.7556 17.4C45.1556 17.5333 45.4356 17.7467 45.5956 18.04C45.7556 18.3067 45.8356 18.6133 45.8356 18.96C45.8356 19.0133 45.8223 19.0933 45.7956 19.2C45.7956 19.3067 45.7823 19.4267 45.7556 19.56C45.809 19.5333 45.889 19.52 45.9956 19.52C46.129 19.52 46.289 19.5067 46.4756 19.48C46.6623 19.4533 46.8356 19.4267 46.9956 19.4C47.1823 19.3733 47.369 19.36 47.5556 19.36H47.7156C48.009 19.36 48.0356 19.48 47.7956 19.72C47.5823 19.9333 47.289 20.0667 46.9156 20.12L45.5556 20.28C45.289 21.0267 44.8223 21.7733 44.1556 22.52C43.5156 23.2667 42.7956 23.92 41.9956 24.48C41.2223 25.0133 40.489 25.36 39.7956 25.52C39.3956 25.6267 38.9823 25.68 38.5556 25.68ZM43.6756 19.72C43.8356 19.72 44.0223 19.72 44.2356 19.72C44.4756 19.6933 44.7423 19.6667 45.0356 19.64C45.0623 19.5867 45.0756 19.4667 45.0756 19.28C45.0756 18.8 44.8756 18.4667 44.4756 18.28C44.2623 18.1467 43.9956 18.08 43.6756 18.08C43.2756 18.08 42.8623 18.2133 42.4356 18.48C42.0356 18.72 41.609 19.04 41.1556 19.44C41.7156 19.6267 42.5556 19.72 43.6756 19.72ZM39.7556 24.28C40.0223 24.28 40.3956 24.16 40.8756 23.92C41.3823 23.6533 41.9023 23.3067 42.4356 22.88C42.969 22.4533 43.449 22 43.8756 21.52C44.009 21.3867 44.1423 21.2267 44.2756 21.04C44.409 20.8267 44.5556 20.6133 44.7156 20.4L43.7556 20.52C42.2623 20.7333 40.929 20.8533 39.7556 20.88C39.169 21.84 38.809 22.64 38.6756 23.28C38.649 23.6267 38.7423 23.88 38.9556 24.04C39.169 24.2 39.4356 24.28 39.7556 24.28ZM46.1688 26.32C45.9821 26.32 45.8887 26.16 45.8887 25.84C45.8887 25.5733 45.9421 25.2533 46.0488 24.88C46.1821 24.5067 46.3288 24.16 46.4888 23.84C46.7288 23.3867 47.0888 22.5867 47.5688 21.44C48.1288 20.1867 48.5954 19.1867 48.9688 18.44C49.3421 17.6667 49.7021 17.08 50.0488 16.68C50.4221 16.2267 50.7154 16 50.9288 16C51.0621 16 51.1688 16.0933 51.2487 16.28C51.3288 16.44 51.3688 16.6267 51.3688 16.84C51.3688 17.0533 51.3421 17.1867 51.2888 17.24C51.0754 17.4533 50.7954 17.8133 50.4488 18.32C50.1021 18.8267 49.7821 19.3333 49.4888 19.84C48.9288 20.88 48.6488 21.6533 48.6488 22.16C48.6488 22.2133 48.6488 22.2667 48.6488 22.32C48.6754 22.3733 48.7021 22.4267 48.7288 22.48C49.0488 22.32 49.3421 22.16 49.6088 22C49.8754 21.84 50.1821 21.6133 50.5288 21.32L52.9688 19.08C53.2354 18.84 53.4754 18.64 53.6888 18.48C53.9021 18.32 54.0754 18.1867 54.2088 18.08C54.4754 17.8933 54.7288 17.8 54.9688 17.8C55.1821 17.8 55.4354 17.9333 55.7288 18.2C55.8621 18.3333 55.9288 18.6933 55.9288 19.28V20.28C55.9288 20.3867 55.9154 20.4933 55.8888 20.6C55.8888 20.68 55.8888 20.7733 55.8888 20.88C55.8888 21.2267 55.9288 21.5333 56.0088 21.8C56.1154 22.04 56.2621 22.16 56.4488 22.16C56.5288 22.16 56.6354 22.0933 56.7688 21.96L57.8888 20.64C58.8221 19.5467 59.5421 18.7467 60.0488 18.24C60.5554 17.7333 61.1288 17.3867 61.7688 17.2C61.8488 17.1733 61.9154 17.16 61.9688 17.16C62.0488 17.1333 62.1154 17.12 62.1688 17.12C62.4088 17.12 62.6088 17.2 62.7688 17.36C62.9554 17.52 63.0088 17.7333 62.9288 18C62.8221 18.4267 62.6754 18.92 62.4888 19.48C62.3288 20.0133 62.1821 20.44 62.0488 20.76C61.7288 21.4 61.5688 21.9067 61.5688 22.28C61.5688 22.52 61.6621 22.68 61.8488 22.76C62.0621 22.84 62.2621 22.8933 62.4488 22.92C62.6621 22.9467 62.7688 23 62.7688 23.08C63.3021 22.8933 63.7021 22.8 63.9688 22.8C64.2354 22.8 64.3021 22.8933 64.1688 23.08C64.0354 23.24 63.7954 23.44 63.4488 23.68C63.1021 23.92 62.7154 24.1333 62.2888 24.32C61.8888 24.48 61.5288 24.56 61.2088 24.56C60.5421 24.56 60.2088 24.2 60.2088 23.48C60.2088 23.1067 60.2621 22.76 60.3688 22.44C60.7421 21.08 60.9288 20.2 60.9288 19.8C60.9288 19.4 60.8221 19.2 60.6088 19.2C60.1288 19.2 59.1021 20.16 57.5288 22.08C57.3688 22.2667 57.1821 22.4667 56.9688 22.68C56.7821 22.8933 56.5688 23.1067 56.3288 23.32C56.0088 23.6133 55.7021 23.92 55.4088 24.24C55.2488 24.4 55.0354 24.48 54.7688 24.48C54.2088 24.48 53.9021 24.28 53.8488 23.88C53.8221 23.4533 53.7954 23.1067 53.7688 22.84C53.7688 22.5467 53.7688 22.3467 53.7688 22.24C53.7154 21.5467 53.6754 21.08 53.6488 20.84C53.6221 20.6 53.5021 20.48 53.2888 20.48C53.0221 20.48 52.3554 20.9067 51.2888 21.76C49.8488 22.9067 48.5288 24.1867 47.3288 25.6C46.8221 26.08 46.4354 26.32 46.1688 26.32Z" fill="black"/>
</svg>
